<svg xmlns="http://www.w3.org/2000/svg" xmlns:xlink="http://www.w3.org/1999/xlink" width="1799" height="793" viewBox="0 0 1799 793"><defs><linearGradient id="a" x1="0.008" y1="1" x2="1.077" y2="-0.08" gradientUnits="objectBoundingBox"><stop offset="0" stop-color="#4e35f2"/><stop offset="1" stop-color="#8a28fb"/></linearGradient><clipPath id="c"><rect width="1799" height="793"/></clipPath></defs><g id="b" clip-path="url(#c)"><rect width="1799" height="793" fill="#fff"/><path d="M0,113.8,1920.235-19.128,1920,690.946H0Z" transform="translate(0 429.054)" fill="url(#a)"/><path d="M.906-197.5C404.924-413.6,1136.175-101.98,1616.07-320.042s303.51-679.137,303.51-679.137v872.245s164.723,425.162,48.45,613-448.9,351.447-650.073,364.006c-58.9,3.677-141.708,8.38-192.006,5.473-126.122-7.29-231.6-14.515-348.456-26.45-65.126-6.651-131.525-22.937-212.049-21.948-116.56,1.432-203.328-1.073-277.816,6.16-232.952,22.62-290.372,71.7-290.372,71.7S-403.111,18.607.906-197.5Z" transform="translate(2 -120.098)" fill="#fff"/><path d="M13959,6935.574c-151.248,414.794-611.325,463.7-1183.705,398.492s-730.475,73.363-730.475,73.363l-.219.48s209.454-131.8,730.693-62.135c211.622,28.284,443.786,36.685,636.877,13.192,280.91-34.178,454.275-155,557.332-345.447C14062.222,6701.415,13959,6935.574,13959,6935.574Z" transform="translate(-12045 -6643)" fill="#b88eff"/><path d="M13997.376,6920.448c-90.748,248.875-300.5,381.049-583.089,423.7-187.23,28.261-410.038,17.978-638.992-8.106-572.38-65.208-739.345,64.558-739.345,64.558v.523s78.358-43.85,252.727-64.92c116.891-14.125,277.078-18.438,486.618,9.568,211.622,28.284,449.365,42.638,642.456,19.145,239.333-29.119,424.874-132.329,538.437-280.217a606.162,606.162,0,0,0,52.335-80.655C14101.24,6691.942,13997.376,6920.448,13997.376,6920.448Z" transform="translate(-12036 -6636)" fill="#8944ff"/></g></svg>