<svg xmlns="http://www.w3.org/2000/svg" xmlns:xlink="http://www.w3.org/1999/xlink" width="1920" height="1103" viewBox="0 0 1920 1103"><defs><linearGradient id="a" x1="0.008" y1="1" x2="1.077" y2="-0.08" gradientUnits="objectBoundingBox"><stop offset="0" stop-color="#4e35f2"/><stop offset="1" stop-color="#8a28fb"/></linearGradient><linearGradient id="b" x1="0.5" x2="0.5" y2="1" gradientUnits="objectBoundingBox"><stop offset="0" stop-color="#4e35f2"/><stop offset="1" stop-color="#8437ff"/></linearGradient><filter id="d" x="-224.056" y="560.063" width="2280.408" height="1545.227" filterUnits="userSpaceOnUse"><feOffset input="SourceAlpha"/><feGaussianBlur stdDeviation="8" result="e"/><feFlood flood-opacity="0.149"/><feComposite operator="in" in2="e"/><feComposite in="SourceGraphic"/></filter><clipPath id="g"><rect width="1920" height="1103"/></clipPath></defs><g id="f" clip-path="url(#g)"><rect width="1920" height="1103" fill="#fff"/><path d="M0,0H1920V1103H0Z" fill="url(#a)"/><path d="M136.684-130.634C297.367-339.313,415.774-307.872,576.456-99.192s160.682,626.04,0,834.72S28.119,935.279-132.563,726.6-24,78.047,136.684-130.634Z" transform="translate(125.694 307.813) rotate(-115)" fill="url(#b)"/><path d="M341.541-39.544c263.993-342.85,458.53-291.194,722.523,51.657s263.993,1028.554,0,1371.4-900.89,328.181-1164.883-14.67S77.548,303.308,341.541-39.544Z" transform="translate(1172.416 1840.691) rotate(-135)" opacity="0.67" fill="url(#b)"/><g transform="matrix(1, 0, 0, 1, 0, 0)" filter="url(#d)"><path d="M.906-106.231C404.924-346.937,1136.175.159,1616.07-242.727s307.985-273.113,307.985-273.113l-4.475,488.2S2111.173,460.2,1994.9,669.427s-311.462,201.9-512.636,215.889c-290.157,20.176-711.386-36.094-994.392-32.22-479.668,6.566-560.9,128.29-560.9,128.29S-403.111,134.475.906-106.231Z" transform="translate(0 1099.9)" fill="#fff"/></g><path d="M13959,6935.574c-151.248,414.794-611.325,463.7-1183.705,398.492s-727.177,74.193-727.177,74.193v1.333s205.938-133.483,727.177-63.817c211.622,28.284,443.786,36.685,636.877,13.192,280.91-34.178,454.275-155,557.332-345.447C14062.222,6701.415,13959,6935.574,13959,6935.574Z" transform="translate(-12048 -6417)" fill="#8944ff"/><path d="M13997.376,6920.448c-90.748,248.875-300.5,381.049-583.089,423.7-187.23,28.261-410.038,17.978-638.992-8.106-572.38-65.208-736.259,66.278-736.259,66.278v.276s215.02-126.491,736.259-56.825c211.622,28.284,449.365,42.638,642.456,19.145,239.333-29.119,424.874-132.329,538.437-280.217a606.162,606.162,0,0,0,52.335-80.655C14101.24,6691.942,13997.376,6920.448,13997.376,6920.448Z" transform="translate(-12039 -6410)" fill="#b88eff"/></g></svg>